<svg width="109" height="53" viewBox="0 0 109 53" fill="none" xmlns="http://www.w3.org/2000/svg">
<g id="brightree-logo" clip-path="url(#clip0_4312_424)">
<path id="Vector" d="M26 0H13V13H26V0Z" fill="#F26522"/>
<path id="Vector_2" d="M38 7H29V16H38V7Z" fill="#005B9E"/>
<path id="Vector_3" d="M28 18H24V22H28V18Z" fill="#009BDF"/>
<path id="Vector_4" d="M66.4396 47.0012L66.018 48.7056C66.1055 48.5794 66.2256 48.4754 66.3674 48.403C66.5459 48.3161 66.7443 48.2702 66.9459 48.2689C67.6326 48.2689 68 48.7606 68 49.363C68 49.6982 67.8133 51 66.4519 51C65.759 51 65.6445 50.6704 65.5783 50.4646L65.4578 50.9506H65L65.9818 47L66.4396 47.0012ZM66.8134 48.6272C66.6361 48.6296 66.4631 48.678 66.314 48.767C66.1649 48.8559 66.0456 48.9818 65.9698 49.1305C65.8379 49.3936 65.7642 49.6785 65.7529 49.9685C65.7529 50.5505 66.1686 50.6725 66.4336 50.6725C66.6762 50.6699 66.9088 50.5821 67.0844 50.4269C67.3596 50.1359 67.5135 49.7631 67.5181 49.3761C67.5302 48.8171 67.1627 48.6272 66.8134 48.6272Z" fill="white"/>
<path id="Vector_5" d="M71 49.0007L69.1035 52.4239C68.8691 52.8169 68.7626 52.9997 68.2885 52.9997C68.1919 53.0018 68.0952 52.9938 68 52.9759L68.0852 52.5888C68.1503 52.6006 68.2163 52.6064 68.2823 52.6062C68.3743 52.6101 68.4653 52.5842 68.5433 52.5319C68.6341 52.4507 68.71 52.3521 68.767 52.2412L69.0982 51.6369L68.8212 49H69.2313L69.4284 51.1416L70.5366 49L71 49.0007Z" fill="white"/>
<path id="Vector_6" d="M78.7412 48.745C78.6388 48.9273 78.5033 49.0889 78.3415 49.2215C78.0756 49.3999 77.7828 49.5344 77.4742 49.6201L78.4521 52H76.8191L76.0282 49.8492H74.9813L74.4889 52H73L74.3603 46H77.0064C77.1335 46 77.2528 46 77.3801 46.0084C77.7207 46.0293 78.0495 46.141 78.3324 46.3318C78.5534 46.4915 78.7302 46.7047 78.8463 46.9513C78.9625 47.1979 79.0142 47.4699 78.9967 47.7418C78.9966 48.0923 78.9088 48.4371 78.7412 48.745ZM77.3801 47.3598C77.2276 47.1639 77.0496 47.0964 76.6238 47.0964H75.6115L75.2368 48.7366H76.4954C76.6038 48.7331 76.7118 48.7217 76.8185 48.7025C76.9383 48.6793 77.0512 48.629 77.1485 48.5553C77.2457 48.4817 77.3248 48.3868 77.3796 48.2778C77.4653 48.1244 77.5091 47.9513 77.5067 47.7756C77.5132 47.6266 77.4686 47.4799 77.3801 47.3598Z" fill="white"/>
<path id="Vector_7" d="M86.9219 48.6627C86.8473 48.5433 86.7581 48.4334 86.6563 48.3356C86.4039 48.1337 86.0868 48.0272 85.762 48.0353C85.366 48.0353 85.1551 48.1998 85.1551 48.3991C85.1551 48.6537 85.4854 48.7351 85.9005 48.8527C86.1025 48.907 86.2968 48.9613 86.49 49.0351C86.9687 49.2069 87.4382 49.4344 87.6045 49.9162C87.6495 50.051 87.6711 50.1922 87.6686 50.334C87.6614 50.5334 87.6136 50.7294 87.5281 50.9103C87.4427 51.0912 87.3212 51.2533 87.171 51.387C86.6526 51.8166 85.9872 52.0344 85.3112 51.9956C84.935 52.0125 84.5595 51.9481 84.2112 51.8069C83.8629 51.6656 83.5501 51.451 83.2948 51.178C83.179 51.0483 83.08 50.9049 83 50.7512L84.1877 50.1695C84.2383 50.2645 84.2967 50.3552 84.3622 50.441C84.4947 50.5841 84.6575 50.6966 84.8392 50.7705C85.0208 50.8444 85.2168 50.8778 85.413 50.8685C85.5691 50.866 85.724 50.8413 85.873 50.7952C85.9763 50.7684 86.0672 50.7076 86.1306 50.6228C86.1654 50.5717 86.1845 50.5118 86.1856 50.4502C86.1849 50.3916 86.1656 50.3347 86.1306 50.2873C86.0205 50.1326 85.8176 50.0786 85.4857 49.9781C84.5463 49.6882 84.1417 49.5514 83.8563 49.0981C83.7315 48.9044 83.6675 48.6786 83.6724 48.4491C83.6773 48.2197 83.7508 47.9968 83.8838 47.8084C84.1417 47.4083 84.7125 47 85.781 47C86.8765 47 87.4201 47.399 87.7336 47.7533C87.8353 47.8745 87.9246 48.0055 88 48.1442L86.9219 48.6627Z" fill="white"/>
<path id="Vector_8" d="M94.6087 52H93.1751L94.2763 47.3598L91.9685 52H90.6749L90.4999 47.292L89.4428 52H88L89.3827 46H91.6633L91.7678 49.9346L93.6841 46H96L94.6087 52Z" fill="white"/>
<path id="Vector_9" d="M103.728 51.8837H102.503L102.559 51.5836C102.495 51.6334 102.432 51.6755 102.369 51.7256C102.099 51.9086 101.784 52.0039 101.462 51.9995C101.14 52.009 100.826 51.8932 100.58 51.6745C100.319 51.4504 100 51.0326 100 50.1917C100.004 49.5969 100.163 49.0145 100.461 48.5082C100.636 48.1914 100.885 47.9274 101.186 47.7421C101.487 47.5568 101.829 47.4564 102.178 47.4509C102.495 47.4452 102.807 47.5442 103.068 47.734C103.17 47.8186 103.259 47.9194 103.331 48.0329L103.768 46H105L103.728 51.8837ZM102.988 48.9514C102.945 48.8019 102.854 48.6721 102.732 48.5829C102.609 48.4938 102.462 48.4503 102.313 48.4596C102.158 48.468 102.009 48.5229 101.883 48.6178C101.43 48.9347 101.232 49.626 101.232 50.1668C101.221 50.3685 101.268 50.569 101.367 50.7422C101.424 50.8367 101.504 50.913 101.599 50.963C101.695 51.013 101.801 51.0347 101.907 51.0259C102.07 51.0236 102.23 50.9773 102.37 50.8913C102.511 50.8053 102.628 50.6825 102.71 50.5351C102.918 50.1628 103.031 49.7403 103.036 49.309C103.04 49.1878 103.024 49.0667 102.988 48.9514Z" fill="white"/>
<path id="Vector_10" d="M82.9693 49.7653C82.9845 49.5649 82.9998 49.3563 82.9998 49.1447C83.0027 48.8985 82.9772 48.653 82.924 48.4153C82.8685 48.1686 82.7711 47.9387 82.638 47.7402C82.4603 47.4973 82.2404 47.305 81.9939 47.1773C81.7475 47.0496 81.4807 46.9895 81.2128 47.0015C80.8044 46.9958 80.4026 47.1253 80.0506 47.3759C79.5533 47.779 79.2003 48.3947 79.0626 49.0994C79.0202 49.3083 79 49.5229 79.0024 49.738C78.9838 50.1731 79.0748 50.6048 79.2633 50.9761C79.4519 51.3474 79.729 51.6408 80.0583 51.8176C80.3251 51.9423 80.6091 52.0042 80.8951 51.9998C81.8534 51.9998 82.3284 51.4618 82.5622 51.097C82.6298 50.9895 82.6916 50.8767 82.7529 50.7594L81.8485 50.2163C81.7933 50.3341 81.7292 50.4456 81.6571 50.5492C81.5614 50.6659 81.4475 50.7583 81.3219 50.821C81.1963 50.8838 81.0616 50.9156 80.9258 50.9146C80.7732 50.9208 80.6222 50.8766 80.4889 50.7867C80.0734 50.514 80.1334 49.8923 80.1415 49.7653H82.9693ZM80.6453 48.25C80.8022 48.0774 81.0072 47.9828 81.2193 47.9853C81.3678 47.9768 81.5148 48.024 81.6402 48.1203C81.7657 48.2167 81.8634 48.3576 81.9202 48.5238C81.9462 48.6399 81.9588 48.7599 81.9576 48.8802H80.2919C80.3649 48.6381 80.4863 48.4216 80.6453 48.25Z" fill="white"/>
<path id="Vector_11" d="M83.0009 51.0028V51L83 51.0028H83.0009Z" fill="white"/>
<path id="Vector_12" d="M99.3805 49.6413C99.3973 49.4549 99.4143 49.2608 99.4143 49.064C99.4175 48.835 99.3893 48.6066 99.3304 48.3855C99.2689 48.1558 99.1603 47.9418 99.0117 47.7574C98.8143 47.5315 98.5698 47.3527 98.2959 47.2338C98.0219 47.115 97.7254 47.0591 97.4275 47.0702C96.9733 47.0649 96.5263 47.1853 96.1349 47.4185C95.5819 47.7936 95.1894 48.3663 95.0361 49.0219C94.9888 49.2162 94.9662 49.4158 94.9689 49.616C94.9483 50.0208 95.0495 50.4224 95.2592 50.7678C95.4689 51.1132 95.7772 51.3862 96.1434 51.5506C96.44 51.6667 96.7558 51.7242 97.0738 51.7201C98.1395 51.7201 98.6677 51.2196 98.929 50.8802C99.0042 50.7803 99.0729 50.6752 99.1408 50.5662L98.1345 50.0609C98.0737 50.1707 98.0026 50.2744 97.9224 50.3706C97.8161 50.4791 97.6894 50.5651 97.5498 50.6235C97.4101 50.6818 97.2604 50.7114 97.1094 50.7105C96.9397 50.7164 96.7716 50.6752 96.6233 50.5915C96.1607 50.3379 96.2277 49.7595 96.2367 49.6413H99.3805ZM96.7968 48.2325C96.9712 48.072 97.199 47.984 97.4348 47.9862C97.6 47.9785 97.7635 48.0224 97.9031 48.112C98.0427 48.2017 98.1516 48.3327 98.215 48.4872C98.2439 48.5952 98.2579 48.7068 98.2566 48.8187H96.4036C96.4847 48.5932 96.6198 48.3915 96.7968 48.2317V48.2325Z" fill="white"/>
<path id="Vector_13" d="M99.1417 50.5667V50.564L99.1404 50.5667H99.1417Z" fill="white"/>
<path id="Vector_14" d="M109 26.8866C109.003 27.0729 108.969 27.2579 108.901 27.4309C108.841 27.5827 108.751 27.7207 108.637 27.8368C108.527 27.9471 108.396 28.0334 108.252 28.0905C107.957 28.2071 107.629 28.2071 107.334 28.0905C107.19 28.0334 107.06 27.9471 106.95 27.8368C106.836 27.7208 106.746 27.5828 106.685 27.4309C106.553 27.0803 106.553 26.6929 106.685 26.3422C106.746 26.1904 106.836 26.0524 106.95 25.9364C107.06 25.8262 107.19 25.7399 107.334 25.6827C107.629 25.5664 107.957 25.5664 108.252 25.6827C108.396 25.7399 108.527 25.8262 108.637 25.9364C108.751 26.0524 108.841 26.1904 108.901 26.3422C108.969 26.5153 109.003 26.7003 109 26.8866ZM108.742 26.8866C108.744 26.7397 108.72 26.5937 108.672 26.4554C108.629 26.3322 108.562 26.2188 108.476 26.1215C108.392 26.0287 108.29 25.9556 108.175 25.9075C107.929 25.8073 107.655 25.8073 107.409 25.9075C107.295 25.9556 107.192 26.0287 107.108 26.1215C107.022 26.2189 106.956 26.3323 106.912 26.4554C106.819 26.7343 106.819 27.0368 106.912 27.3158C106.956 27.4389 107.022 27.5523 107.108 27.6496C107.192 27.7424 107.295 27.8154 107.409 27.8637C107.655 27.9638 107.929 27.9638 108.175 27.8637C108.29 27.8154 108.392 27.7424 108.476 27.6496C108.562 27.5524 108.629 27.4389 108.672 27.3158C108.72 27.1781 108.744 27.0328 108.742 26.8866ZM108.142 27.5968C108.089 27.4911 108.028 27.3894 107.961 27.2924C107.906 27.2126 107.848 27.1357 107.785 27.0621H107.549V27.5984H107.298V26.2131C107.364 26.1983 107.431 26.1875 107.499 26.1809C107.57 26.1738 107.634 26.1703 107.693 26.1703C107.855 26.1596 108.016 26.1994 108.155 26.2844C108.208 26.3239 108.251 26.3764 108.279 26.4369C108.306 26.4974 108.319 26.5641 108.314 26.6306C108.316 26.7129 108.292 26.7937 108.245 26.8612C108.196 26.9297 108.128 26.9825 108.049 27.0134C108.073 27.0418 108.1 27.0776 108.131 27.1202C108.162 27.1628 108.193 27.2108 108.226 27.263C108.259 27.3153 108.292 27.3703 108.325 27.4274C108.358 27.4845 108.387 27.5418 108.413 27.5989L108.142 27.5968ZM107.55 26.8541H107.684C107.774 26.8569 107.864 26.8417 107.948 26.8095C107.983 26.7945 108.012 26.7685 108.032 26.7353C108.051 26.7022 108.059 26.6637 108.054 26.6256C108.057 26.5883 108.05 26.551 108.032 26.5183C108.014 26.4856 107.987 26.459 107.954 26.4419C107.879 26.4054 107.796 26.3876 107.712 26.3899C107.687 26.3899 107.659 26.3899 107.631 26.3917C107.603 26.3935 107.576 26.3947 107.55 26.3973L107.55 26.8541Z" fill="white"/>
<path id="Vector_15" d="M7.06983 25.3038C6.20086 25.2938 5.34186 25.4917 4.5628 25.8813C3.86624 26.2522 3.24037 26.7454 2.71436 27.3379V20.9375H0V39.3679L0.0626758 39.4045C0.745766 39.7541 1.47713 39.9973 2.23201 40.1259C3.29586 40.3347 4.37768 40.4353 5.46132 40.4262C7.8771 40.4262 9.78294 39.7568 11.125 38.436C12.467 37.1152 13.1469 35.179 13.1469 32.6761C13.1469 30.2336 12.6274 28.3758 11.6035 27.1545C10.5717 25.9262 9.04638 25.3038 7.06983 25.3038ZM9.01027 36.7796C8.21454 37.6263 7.12123 38.0555 5.76091 38.0555C4.72654 38.0797 3.69609 37.9187 2.71712 37.5799V30.934C2.85875 30.5091 3.04526 30.1009 3.27343 29.7164C3.50273 29.3255 3.78566 28.9694 4.11379 28.6589C4.44258 28.3532 4.82257 28.1092 5.23594 27.9383C5.69995 27.7546 6.19509 27.6649 6.69327 27.6742C7.24179 27.6582 7.78488 27.7879 8.26844 28.0504C8.7052 28.3048 9.07792 28.658 9.3575 29.0823C9.66651 29.562 9.88591 30.0951 10.0048 30.655C10.1489 31.3091 10.2194 31.9776 10.2152 32.6477C10.2152 34.5413 9.80977 35.9316 9.01027 36.7806V36.7796Z" fill="white"/>
<path id="Vector_16" d="M22.2958 25.4283C21.9967 25.386 21.6953 25.3631 21.3933 25.3596C20.6301 25.348 19.8818 25.5731 19.2488 26.0046C18.778 26.3296 18.3736 26.7436 18.0579 27.2237V25.685H15.3453V40.1812H18.062V30.451C18.1687 29.7754 18.4997 29.1566 19.0003 28.6967C19.5002 28.2345 20.2155 28.0007 21.1268 28.0007C21.4266 28.0007 21.7257 28.029 22.0203 28.0851C22.2764 28.1352 22.5285 28.2045 22.7744 28.2924L22.9106 28.3408L23.4453 25.6979L23.3375 25.6637C22.9977 25.5549 22.6491 25.4761 22.2958 25.4283Z" fill="white"/>
<path id="Vector_17" d="M27.5223 25.6846H24.8052V40.1807H27.5223V25.6846Z" fill="white"/>
<path id="Vector_18" d="M40.6227 25.5232C39.6088 25.3663 38.584 25.2929 37.5583 25.3038C35.0683 25.3038 33.1617 25.9838 31.8909 27.325C30.6234 28.6607 29.9803 30.5888 29.9803 33.0551C29.9803 35.5517 30.4765 37.3927 31.4547 38.5251C32.4385 39.6597 33.9818 40.235 36.0426 40.235C36.9421 40.2573 37.8378 40.1073 38.6822 39.7929C39.2879 39.5254 39.8381 39.1441 40.3035 38.6694V39.5392C40.3127 40.1403 40.2513 40.7403 40.1205 41.3267C40.0171 41.7777 39.788 42.1892 39.4604 42.5123C39.0881 42.8496 38.6377 43.0865 38.151 43.201C37.4519 43.3663 36.735 43.442 36.0172 43.4265C35.6884 43.4258 35.3602 43.399 35.0355 43.3466C34.6931 43.293 34.3537 43.2219 34.0184 43.1336C33.6968 43.0475 33.3799 42.9445 33.069 42.8249C32.7463 42.698 32.4868 42.5892 32.2748 42.489L32.1386 42.4251L31.4868 44.9262L31.5818 44.9708C32.2082 45.2535 32.8663 45.4579 33.5416 45.5796C34.5238 45.7423 35.5185 45.8157 36.5136 45.799C38.6246 45.799 40.2531 45.328 41.3545 44.3981C42.4606 43.4636 43.0216 42.0299 43.0216 40.1366V26.1269L42.9369 26.0975C42.1818 25.8441 41.408 25.6521 40.6227 25.5232ZM34.0475 28.973C34.7996 28.1118 35.8563 27.675 37.191 27.675C37.7883 27.6704 38.3853 27.7062 38.9778 27.7823C39.4165 27.8385 39.8504 27.9277 40.2759 28.0492V34.9381C40.084 35.7504 39.6596 36.4874 39.0558 37.0569C38.4739 37.5929 37.6498 37.865 36.6069 37.865C35.2599 37.865 34.3004 37.4462 33.7526 36.6201C33.1946 35.7756 32.912 34.5586 32.912 33.0009C32.912 31.1968 33.2939 29.8418 34.0477 28.9732L34.0475 28.973Z" fill="white"/>
<path id="Vector_19" d="M57.4823 26.6299C57.0415 26.1492 56.4861 25.7911 55.8693 25.5899C55.1226 25.3518 54.3414 25.2444 53.559 25.2723C52.5916 25.2743 51.6372 25.498 50.7675 25.9265C50.0072 26.3064 49.3203 26.8208 48.739 27.4454V20.9375H46.0204V40.1809H48.7388V30.9807C48.8534 30.5376 49.0461 30.1192 49.3076 29.7453C49.5605 29.3445 49.8769 28.9886 50.244 28.6916C50.6056 28.3973 51.0101 28.1614 51.4431 27.9925C51.8681 27.8369 52.3166 27.7571 52.7686 27.7566C53.3137 27.7402 53.857 27.8289 54.3693 28.0182C54.77 28.1784 55.115 28.4549 55.3608 28.8129C55.6279 29.2284 55.8035 29.6972 55.8758 30.1875C55.9799 30.8483 56.0289 31.5169 56.0222 32.1861V40.1809H58.7393V31.6435C58.7728 30.6194 58.6919 29.5949 58.4984 28.5892C58.3197 27.8632 57.9712 27.1912 57.4823 26.6299Z" fill="white"/>
<path id="Vector_20" d="M69.1921 37.656C68.7474 37.812 68.3302 37.9431 67.9536 38.0474C67.5651 38.1466 67.1655 38.1947 66.7648 38.1904C66.1077 38.1904 65.6602 37.9799 65.3967 37.5469C65.1244 37.0979 64.9868 36.3078 64.9868 35.198V28.0549H69.2237V25.6852H64.9868V22.1218L62.2702 22.8379V25.685H59.8832V28.0549H62.2702V36.0394C62.2702 37.6169 62.546 38.7749 63.0865 39.4818C63.6363 40.1971 64.5676 40.5604 65.854 40.5604C66.5738 40.5646 67.2913 40.477 67.9895 40.2996C68.6236 40.1346 69.2439 39.9194 69.8447 39.6561L69.949 39.6102L69.3119 37.6139L69.1921 37.656Z" fill="white"/>
<path id="Vector_21" d="M89.6049 26.4599C89.0254 26.0347 88.3739 25.7205 87.6825 25.5328C87.0147 25.3578 86.3271 25.2719 85.6373 25.2771C83.6297 25.2771 81.8015 26.0127 80.619 27.298C79.2993 28.7337 78.6299 30.6341 78.6299 32.9462C78.6182 34.0035 78.7551 35.0571 79.0363 36.0754C79.293 36.957 79.7357 37.7717 80.3339 38.4633C80.9473 39.1602 81.7143 39.7012 82.5727 40.0424C83.5426 40.4139 84.5749 40.5897 85.6115 40.5601C86.6481 40.5691 87.6806 40.4259 88.6766 40.135C89.5273 39.8959 90.3302 39.5082 91.049 38.9894L91.1337 38.926L90.0775 36.7905L89.9562 36.8919C89.4938 37.2816 88.9708 37.5909 88.4083 37.8074C87.7102 38.0787 86.9698 38.2219 86.2219 38.23C84.5422 38.23 83.3464 37.801 82.5677 36.9191C81.7965 36.0477 81.3894 34.8023 81.416 33.4005H91.4581L91.4744 33.2925C91.5281 32.929 91.5649 32.55 91.5835 32.1655C91.6015 31.7632 91.6106 31.4332 91.6106 31.1567C91.6272 30.1374 91.4178 29.1274 90.9978 28.2008C90.683 27.5128 90.2044 26.9147 89.6049 26.4599ZM81.5391 31.3555C81.6346 30.3165 82.1191 29.3538 82.8933 28.6643C83.6674 27.9748 84.6728 27.6108 85.7035 27.6468C86.763 27.6468 87.5391 27.9202 88.1463 28.5079C88.7789 29.1198 89.0602 30.052 89.0042 31.3555H81.5391Z" fill="white"/>
<path id="Vector_22" d="M79.2104 25.698L79.1026 25.6637C78.763 25.5549 78.4148 25.4761 78.0617 25.4283C77.7634 25.3861 77.4628 25.3632 77.1617 25.3596C76.3979 25.3478 75.6489 25.5729 75.0154 26.0046C74.5447 26.3297 74.1404 26.7435 73.8246 27.2235V25.685H71.111V40.1812H73.8281V30.4508C73.9345 29.7754 74.265 29.1568 74.7652 28.6967C75.2666 28.2345 75.9821 28.0007 76.8932 28.0007C77.1927 28.0008 77.4916 28.0291 77.7859 28.0851C78.0425 28.1354 78.295 28.2047 78.5415 28.2924L78.6772 28.3408L79.2104 25.698Z" fill="white"/>
<path id="Vector_23" d="M105.407 28.2002C105.093 27.5125 104.615 26.9144 104.015 26.4599C103.436 26.0348 102.785 25.7206 102.094 25.5328C101.426 25.3579 100.739 25.272 100.05 25.2771C98.04 25.2771 96.2107 26.0127 95.0306 27.298C93.7101 28.7337 93.0403 30.6341 93.0403 32.9462C93.0286 34.0035 93.1657 35.0571 93.4472 36.0754C93.7038 36.9569 94.1465 37.7717 94.7445 38.4633C95.3578 39.1603 96.1248 39.7013 96.9833 40.0424C97.9533 40.4141 98.9858 40.5899 100.023 40.5601C101.059 40.569 102.092 40.4258 103.087 40.135C103.938 39.8957 104.741 39.5081 105.46 38.9894L105.544 38.926L104.488 36.7904L104.366 36.8919C103.904 37.2817 103.381 37.5911 102.819 37.8074C102.121 38.0787 101.381 38.2218 100.633 38.23C98.9531 38.23 97.7565 37.801 96.9781 36.9191C96.2064 36.0467 95.7998 34.8012 95.8273 33.4005H105.868L105.884 33.2925C105.937 32.9338 105.974 32.5548 105.994 32.165C106.011 31.7591 106.019 31.4293 106.019 31.1567C106.036 30.1374 105.827 29.1272 105.407 28.2002ZM95.9502 31.356C96.0456 30.3169 96.53 29.3541 97.3042 28.6646C98.0784 27.9751 99.0838 27.6111 100.115 27.6473C101.174 27.6473 101.951 27.9207 102.558 28.5084C103.189 29.1198 103.47 30.0522 103.415 31.356H95.9502Z" fill="white"/>
</g>
<defs>
<clipPath id="clip0_4312_424">
<rect width="109" height="53" fill="white"/>
</clipPath>
</defs>
</svg>
