<svg width="30" height="40" viewBox="0 0 30 40" fill="none" xmlns="http://www.w3.org/2000/svg">
<g id="HME">
<path id="Union" fill-rule="evenodd" clip-rule="evenodd" d="M24.5885 11.1301H5.40769C2.48975 14.5043 1.18644 18.9645 1.82734 23.4262C2.09345 25.295 2.27899 27.0711 2.44256 28.6377C2.7282 31.3781 2.96013 33.5973 3.46549 35.0776C4.29067 35.1756 5.12806 35.281 5.97928 35.3998C6.32506 35.4519 6.66702 35.5038 7.0054 35.556C5.03047 33.0513 3.9171 29.8078 3.90162 26.3875C3.9 26.0066 4.15634 25.673 4.52498 25.5774C6.02561 25.1872 8.21063 24.281 10.1027 22.1786C12.955 19.0081 13.296 15.1296 13.3098 13.6094C13.3123 13.362 13.4237 13.1289 13.6158 12.9722C13.807 12.8152 14.0577 12.7513 14.301 12.7989C21.0611 14.1017 26.131 20.14 26.0952 26.8444C26.0802 29.6337 25.1941 32.5705 23.6466 34.96L28.1614 34.1958V23.5446C28.1614 23.5051 28.1639 23.4652 28.1696 23.4262C28.8112 18.9641 27.5072 14.5042 24.5885 11.1301ZM3.88439 10.3519L1.24553 1.06152C1.16252 0.768959 1.24553 0.454023 1.462 0.240404C1.67765 0.0263783 1.99177 -0.052559 2.28555 0.0353299C10.5357 2.49826 19.4223 2.50395 27.7123 0.034923C28.002 -0.0505247 28.3186 0.0267852 28.5359 0.240811C28.7515 0.45443 28.8345 0.768959 28.7515 1.06152L26.1125 10.3525C29.15 14.0371 30.4989 18.8174 29.8281 23.6036V34.9002C29.8281 35.3067 29.5343 35.6541 29.1339 35.7217L22.2566 36.8854L22.2383 36.7776C20.5563 38.5904 18.3969 39.8212 15.9074 39.9822C15.7211 39.994 15.5347 40.0001 15.3484 40.0001C13.1271 40.0001 10.9046 39.1506 8.97181 37.5653C7.9264 37.3827 6.84958 37.216 5.74003 37.049C4.73744 36.9094 3.74544 36.7873 2.77215 36.6738C2.47511 36.6396 2.21959 36.4488 2.1024 36.1746C1.3765 34.4811 1.11528 31.9787 0.784879 28.8106C0.622936 27.2587 0.43902 25.4993 0.176981 23.6622C-0.513281 18.8573 0.834826 14.0524 3.88439 10.3519ZM24.6321 9.46346H5.36492L3.25558 2.03847C10.9158 4.05666 19.052 4.06113 26.7415 2.03765L24.6321 9.46346ZM9.4956 35.8099C7.15759 33.6286 5.75136 30.4475 5.58454 27.006C7.2528 26.4786 9.42887 25.4191 11.3413 23.2935C14.0495 20.2837 14.76 16.7339 14.9284 14.6547C20.4361 16.1586 24.4587 21.235 24.4286 26.8355C24.4009 32.0051 20.8504 37.9925 15.8 38.3188C13.6451 38.4568 11.3535 37.5437 9.4956 35.8099ZM15.8319 3.95508H14.1653V5.62158H12.4985V7.28822H14.1653V8.95498H15.8319V7.28822H17.4984V5.62158H15.8319V3.95508Z" fill="#0F2D5B"/>
</g>
</svg>
