<svg width="267" height="267" viewBox="0 0 267 267" fill="none" xmlns="http://www.w3.org/2000/svg">
<path d="M107.954 141.058C109.059 143.443 109.612 146.292 109.612 149.607C109.612 153.62 108.768 157.022 107.082 159.813C105.686 162.197 103.709 164.058 101.15 165.396C98.5915 166.733 95.6257 167.402 92.2528 167.402C88.7636 167.402 85.7105 166.733 83.0936 165.396C80.4767 164 78.4704 161.994 77.0748 159.377C75.4465 156.469 74.6323 153.183 74.6323 149.52C74.6323 146.438 75.2429 143.53 76.4642 140.797C77.8017 137.889 79.9243 135.708 82.8319 134.255C83.1227 134.138 83.1227 133.993 82.8319 133.818C80.9129 132.713 79.3427 131.231 78.1215 129.37C76.3769 126.869 75.5046 124.02 75.5046 120.821C75.5046 117.564 76.3769 114.599 78.1215 111.924C79.5172 109.656 81.4363 107.911 83.8787 106.69C86.3793 105.41 89.1707 104.771 92.2528 104.771C95.4512 104.771 98.2426 105.41 100.627 106.69C103.011 107.911 104.901 109.656 106.297 111.924C107.983 114.657 108.826 117.623 108.826 120.821C108.826 124.02 107.954 126.927 106.21 129.544C105.163 131.114 103.622 132.539 101.586 133.818C101.296 133.993 101.296 134.138 101.586 134.255C104.552 135.708 106.675 137.976 107.954 141.058ZM83.0064 115.674C82.076 117.419 81.6107 119.135 81.6107 120.821C81.6107 123.264 82.2213 125.386 83.4426 127.189C84.373 128.643 85.5652 129.748 87.019 130.504C88.531 131.26 90.2465 131.638 92.1656 131.638C94.0846 131.638 95.8001 131.26 97.3121 130.504C98.8241 129.689 100.045 128.555 100.976 127.102C102.081 125.531 102.633 123.409 102.633 120.734C102.633 118.815 102.197 117.07 101.325 115.5C100.452 113.872 99.2312 112.592 97.661 111.662C96.0909 110.673 94.23 110.179 92.0783 110.179C90.043 110.179 88.2402 110.673 86.6701 111.662C85.0999 112.651 83.8787 113.988 83.0064 115.674ZM101.237 157.458C102.691 155.248 103.418 152.486 103.418 149.171C103.418 146.438 102.953 144.082 102.023 142.105C100.278 138.267 96.9923 136.348 92.1656 136.348C87.5714 136.348 84.373 138.151 82.5703 141.756C81.5235 143.617 81.0001 146.118 81.0001 149.258C81.0001 152.515 81.6398 155.161 82.9192 157.196C84.8964 160.394 88.0076 161.994 92.2528 161.994C96.3817 161.994 99.3766 160.482 101.237 157.458Z" fill="white"/>
<path d="M153.356 144.286C153.938 144.286 154.228 144.577 154.228 145.158V148.996C154.228 149.578 153.938 149.869 153.356 149.869H149.605C149.373 149.869 149.256 149.985 149.256 150.218V165.832C149.256 166.413 148.965 166.704 148.384 166.704H143.935C143.354 166.704 143.063 166.413 143.063 165.832V150.218C143.063 149.985 142.947 149.869 142.714 149.869H116.632C116.051 149.869 115.76 149.578 115.76 148.996V145.769C115.76 145.478 115.847 145.129 116.022 144.722L133.904 106.254C134.078 105.847 134.398 105.643 134.863 105.643H139.486C139.777 105.643 139.981 105.759 140.097 105.992C140.272 106.166 140.301 106.399 140.184 106.69L122.826 143.85C122.767 143.966 122.767 144.082 122.826 144.199C122.884 144.257 122.971 144.286 123.087 144.286H142.714C142.947 144.286 143.063 144.17 143.063 143.937V129.893C143.063 129.311 143.354 129.021 143.935 129.021H148.384C148.965 129.021 149.256 129.311 149.256 129.893V143.937C149.256 144.17 149.373 144.286 149.605 144.286H153.356Z" fill="white"/>
<path d="M169.3 160.86C169.126 161.15 169.184 161.296 169.475 161.296H196.865C197.446 161.296 197.737 161.587 197.737 162.168V165.832C197.737 166.413 197.446 166.704 196.865 166.704H162.06C161.478 166.704 161.188 166.413 161.188 165.832V162.168C161.188 161.761 161.333 161.412 161.624 161.121C163.601 158.795 168.05 153.329 174.97 144.722L181.425 136.697C186.891 129.777 189.625 124.398 189.625 120.559C189.625 117.477 188.578 115.006 186.484 113.145C184.391 111.284 181.658 110.353 178.285 110.353C174.97 110.353 172.295 111.313 170.26 113.232C168.224 115.093 167.236 117.564 167.294 120.647V123.351C167.294 123.932 167.003 124.223 166.421 124.223H161.886C161.304 124.223 161.013 123.932 161.013 123.351V119.862C161.13 115.384 162.787 111.778 165.985 109.045C169.242 106.312 173.342 104.945 178.285 104.945C181.774 104.945 184.856 105.614 187.531 106.951C190.206 108.289 192.271 110.15 193.724 112.534C195.178 114.86 195.905 117.506 195.905 120.472C195.905 125.415 193.172 131.376 187.706 138.354C184.856 142.018 179.361 148.764 171.219 158.592L169.3 160.86Z" fill="white"/>
<path d="M227.527 219.93C275.182 167.951 271.664 86.8895 219.684 39.2347C167.706 -8.42021 86.6383 -4.9014 38.9849 47.0781C19.5482 68.2698 8.0786 94.5791 5.78288 123.173C5.72253 123.464 4.40487 131.59 7.68991 134.824L142.722 258.623C145.7 261.345 154.247 259.678 154.612 259.607C182.885 254.841 208.095 241.128 227.527 219.93ZM226.54 219.023C207.309 239.994 182.362 253.574 154.37 258.286C152.054 258.74 145.86 260.143 143.488 258.043L142.054 256.619C139.184 253.742 139.514 250.608 139.514 250.608C141.5 219.747 129.685 187.882 104.625 164.92C79.6688 142.031 46.8058 134.958 16.5538 137.552C16.5538 137.552 13.8047 138.124 10.1665 135.494L8.46524 134.089C5.69721 131.356 7.09465 123.419 7.10671 123.334C9.38603 94.989 20.7558 68.9516 39.9732 47.9827C87.1262 -3.4569 167.334 -6.93838 218.781 40.2214C270.212 87.3776 273.694 167.591 226.54 219.023Z" fill="#F07358"/>
</svg>
