<svg width="25" height="34" viewBox="0 0 25 34" fill="none" xmlns="http://www.w3.org/2000/svg">
<g id="O&#38;P">
<g id="Union">
<path fill-rule="evenodd" clip-rule="evenodd" d="M3.2632 4.58247C4.80862 7.83826 9.69986 12.6375 10.623 13.5272L11.384 13.0878V13.0878L12.5597 12.4089C12.2508 11.1643 10.5402 4.52785 8.49422 1.56214C6.55201 1.59694 4.26445 2.91788 3.26321 4.58247L3.2632 4.58247ZM10.5811 14.1562C10.5112 14.1562 10.4419 14.1301 10.3885 14.0798C10.143 13.848 4.35668 8.36285 2.69146 4.68396C2.65476 4.6029 2.65866 4.5092 2.70204 4.43148C3.78174 2.49562 6.34743 1.00003 8.57126 1.00003C8.59561 0.999904 8.61973 1.0002 8.6439 1.00055C8.73294 1.0017 8.81605 1.04531 8.86786 1.11764C11.2208 4.39927 13.0776 12.1535 13.1555 12.482C13.1841 12.6026 13.1301 12.7279 13.0227 12.7899L12.801 12.9179L13.6494 14.3878C14.4742 14.5687 15.0934 15.3053 15.0934 16.1837C15.0934 16.5353 14.9942 16.8642 14.8223 17.1438L14.8223 24.4014C15.0124 24.6585 15.1249 24.9763 15.1249 25.3198C15.1249 25.4708 15.1031 25.6167 15.0627 25.7548C15.0699 27.9439 15.66 29.3643 16.866 30.0962C17.8894 30.7173 19.1753 30.7198 20.1145 30.7215H20.1152C20.825 30.7228 21.2938 30.7237 21.55 30.9576C21.9181 31.2935 22.0401 31.6213 21.9128 31.9316C21.7016 32.4471 20.7778 33.0002 16.0204 33.0001C15.0692 33.0001 13.9656 32.9781 12.6829 32.9292C12.4742 32.9212 12.3233 32.9155 12.2741 32.9155L12.2625 32.9153C12.2349 32.9141 11.5826 32.8811 11.2153 32.3314C10.9035 31.8649 10.9034 31.1971 11.2151 30.3465L11.2372 30.2859L11.2373 30.2858C12.0192 28.1518 12.0874 27.9657 12.0882 25.7432C12.0498 25.6086 12.0293 25.4666 12.0293 25.3198C12.0293 25.07 12.0888 24.8337 12.1944 24.6246L12.1934 24.6227L12.1878 24.6127C11.5581 23.4707 11.1365 22.1314 11.0006 20.8412C10.8478 19.3901 11.0699 18.0896 11.6431 17.0663C11.4991 16.8041 11.4171 16.5033 11.4171 16.1837C11.4171 15.8181 11.5243 15.4771 11.709 15.1905L10.998 13.9589L10.7214 14.1186C10.6776 14.1437 10.6293 14.1562 10.5812 14.1562L10.5811 14.1562ZM12.6434 26.5535C12.6138 28.1608 12.4574 28.5876 11.7643 30.4791L11.7422 30.5395C11.4991 31.2029 11.4783 31.7147 11.6819 32.0194C11.8796 32.315 12.2456 32.3512 12.2826 32.3542C12.3458 32.3545 12.4797 32.3596 12.6945 32.3678L12.7043 32.3682L12.7066 32.3683C13.6093 32.4027 15.7179 32.483 17.662 32.4123C20.9926 32.2914 21.3547 31.8133 21.3935 31.7187C21.4196 31.655 21.3324 31.5191 21.1716 31.3722C21.0715 31.2847 20.5188 31.2837 20.1149 31.2829H20.1141H20.113C19.1079 31.281 17.7318 31.2783 16.5748 30.5762C15.3631 29.8409 14.6775 28.4844 14.5311 26.5379C14.268 26.7444 13.9367 26.8676 13.5771 26.8676C13.2267 26.8676 12.9031 26.7505 12.6434 26.5535ZM14.3367 24.6911C14.3306 24.6846 14.3248 24.6778 14.3193 24.6707C14.1384 24.464 13.8727 24.3332 13.5771 24.3332C13.0332 24.3332 12.5907 24.7758 12.5907 25.3198C12.5907 25.8638 13.0332 26.3064 13.5771 26.3064C14.121 26.3064 14.5635 25.8639 14.5635 25.3198C14.5635 25.0811 14.4783 24.862 14.3367 24.6911ZM14.2609 17.7219V23.9313C14.0546 23.8292 13.8224 23.7719 13.5771 23.7719C13.1943 23.7719 12.8435 23.9116 12.5731 24.1426C11.5958 22.2532 11.0613 19.5152 12.0242 17.5478C12.3503 17.8424 12.7822 18.0221 13.2553 18.0221C13.6262 18.0221 13.9718 17.9116 14.2609 17.7219ZM12.1037 14.7517C12.3533 14.5506 12.6564 14.4132 12.9879 14.3647L12.3148 13.1987L11.6647 13.574L11.6648 13.5738L11.4841 13.6782L12.1037 14.7517ZM11.9784 16.1837C11.9784 15.4796 12.5512 14.9066 13.2553 14.9066C13.9593 14.9067 14.5321 15.4795 14.5321 16.1837C14.5321 16.8879 13.9593 17.4608 13.2553 17.4608C12.5512 17.4608 11.9784 16.8879 11.9784 16.1837Z" fill="#0F2D5B"/>
<path d="M10.623 13.5272L10.276 13.8872L10.5471 14.1484L10.873 13.9602L10.623 13.5272ZM3.2632 4.58247L3.35484 4.09094L2.39112 3.91126L2.8115 4.79688L3.2632 4.58247ZM11.384 13.0878L11.6341 13.5208L11.884 13.3765V13.0878H11.384ZM11.384 13.0878L11.134 12.6548L10.884 12.7991V13.0878H11.384ZM12.5597 12.4089L12.8097 12.8418L13.1356 12.6537L13.045 12.2884L12.5597 12.4089ZM8.49422 1.56214L8.90578 1.27821L8.75346 1.05741L8.48526 1.06222L8.49422 1.56214ZM3.26321 4.58247L3.17157 5.074L3.51277 5.13762L3.69167 4.84019L3.26321 4.58247ZM10.3885 14.0798L10.0452 14.4433L10.0455 14.4436L10.3885 14.0798ZM10.5811 14.1562L10.8048 13.709L10.6992 13.6562H10.5811V14.1562ZM2.69146 4.68396L3.14697 4.47778L3.14695 4.47774L2.69146 4.68396ZM2.70204 4.43148L3.13865 4.67513L3.13871 4.67503L2.70204 4.43148ZM8.57126 1.00003V1.50004L8.57384 1.50002L8.57126 1.00003ZM8.6439 1.00055L8.63654 1.5005L8.63744 1.50051L8.6439 1.00055ZM8.86786 1.11764L8.4614 1.40882L8.46152 1.40899L8.86786 1.11764ZM13.1555 12.482L12.6689 12.5973L12.669 12.5977L13.1555 12.482ZM13.0227 12.7899L13.2727 13.223L13.2729 13.2229L13.0227 12.7899ZM12.801 12.9179L12.551 12.4849L12.1181 12.7349L12.368 13.1679L12.801 12.9179ZM13.6494 14.3878L13.2164 14.6378L13.3267 14.8289L13.5423 14.8762L13.6494 14.3878ZM15.0934 16.1837H14.5934V16.1837L15.0934 16.1837ZM14.8223 17.1438L14.3963 16.8819L14.3223 17.0024V17.1438L14.8223 17.1438ZM14.8223 24.4014L14.3223 24.4014L14.3223 24.5661L14.4203 24.6986L14.8223 24.4014ZM15.0627 25.7548L14.5829 25.6141L14.5624 25.6838L14.5627 25.7564L15.0627 25.7548ZM16.866 30.0962L16.6066 30.5237L16.6066 30.5237L16.866 30.0962ZM20.1145 30.7215L20.1135 31.2215H20.1145V30.7215ZM20.1152 30.7215L20.116 30.2215H20.1152V30.7215ZM21.55 30.9576L21.2129 31.3268L21.213 31.3269L21.55 30.9576ZM21.9128 31.9316L21.4502 31.7418L21.4502 31.742L21.9128 31.9316ZM16.0204 33.0001L16.0204 32.5001H16.0204V33.0001ZM12.6829 32.9292L12.6637 33.4288L12.6638 33.4288L12.6829 32.9292ZM12.2741 32.9155L12.264 33.4155H12.2741V32.9155ZM12.2625 32.9153L12.2406 33.4149L12.2524 33.4152L12.2625 32.9153ZM11.2153 32.3314L11.631 32.0536L11.631 32.0535L11.2153 32.3314ZM11.2151 30.3465L11.6846 30.5185L11.6847 30.5181L11.2151 30.3465ZM11.2372 30.2859L11.7069 30.4576L11.7081 30.4541L11.2372 30.2859ZM11.2373 30.2858L10.7678 30.1138L10.7664 30.1177L11.2373 30.2858ZM12.0882 25.7432L12.5882 25.7434L12.5882 25.6735L12.5691 25.6063L12.0882 25.7432ZM12.1944 24.6246L12.6408 24.8499L12.7596 24.6144L12.6324 24.3833L12.1944 24.6246ZM12.1934 24.6227L12.6313 24.3815L12.6307 24.3804L12.1934 24.6227ZM12.1878 24.6127L11.75 24.8541L11.7505 24.855L12.1878 24.6127ZM11.0006 20.8412L10.5033 20.8936L10.5033 20.8936L11.0006 20.8412ZM11.6431 17.0663L12.0793 17.3106L12.2149 17.0686L12.0813 16.8255L11.6431 17.0663ZM11.709 15.1905L12.1293 15.4613L12.2946 15.2048L12.142 14.9405L11.709 15.1905ZM10.998 13.9589L11.431 13.7089L11.181 13.2759L10.7479 13.5259L10.998 13.9589ZM10.7214 14.1186L10.9703 14.5522L10.9715 14.5516L10.7214 14.1186ZM10.5812 14.1562L10.3576 14.6035L10.4631 14.6562H10.5812V14.1562ZM12.6434 26.5535L12.9456 26.1552L12.1616 25.5604L12.1434 26.5443L12.6434 26.5535ZM11.7643 30.4791L12.2338 30.6512L12.2338 30.6512L11.7643 30.4791ZM11.7422 30.5395L11.2727 30.3675L11.2727 30.3675L11.7422 30.5395ZM11.6819 32.0194L11.2662 32.2972L11.2663 32.2973L11.6819 32.0194ZM12.2826 32.3542L12.2432 32.8526L12.2615 32.854L12.2798 32.8541L12.2826 32.3542ZM12.6945 32.3678L12.7136 31.8682L12.7136 31.8682L12.6945 32.3678ZM12.7043 32.3682L12.7238 31.8686L12.7234 31.8686L12.7043 32.3682ZM12.7066 32.3683L12.6871 32.8679L12.6876 32.8679L12.7066 32.3683ZM17.662 32.4123L17.6438 31.9127H17.6438L17.662 32.4123ZM21.3935 31.7187L20.9308 31.5291L20.9308 31.5292L21.3935 31.7187ZM21.1716 31.3722L21.5089 31.0029L21.5007 30.9957L21.1716 31.3722ZM20.1149 31.2829L20.1158 30.7829H20.1149V31.2829ZM20.113 31.2829L20.112 31.7829H20.113V31.2829ZM16.5748 30.5762L16.8342 30.1487L16.8342 30.1487L16.5748 30.5762ZM14.5311 26.5379L15.0296 26.5004L14.9594 25.5662L14.2223 26.1446L14.5311 26.5379ZM13.5771 26.8676L13.5772 26.3676H13.5771V26.8676ZM14.3193 24.6707L14.715 24.3651L14.7057 24.3529L14.6955 24.3414L14.3193 24.6707ZM14.3367 24.6911L14.7217 24.3721L14.712 24.3603L14.7015 24.3492L14.3367 24.6911ZM13.5771 24.3332L13.5772 23.8332H13.5771V24.3332ZM14.5635 25.3198L14.0635 25.3198V25.3198H14.5635ZM14.2609 23.9313L14.0393 24.3795L14.7609 24.7364V23.9313H14.2609ZM14.2609 17.7219H14.7609V16.7957L13.9866 17.3039L14.2609 17.7219ZM13.5771 23.7719V24.2719H13.5771L13.5771 23.7719ZM12.5731 24.1426L12.129 24.3723L12.4186 24.9323L12.8979 24.5228L12.5731 24.1426ZM12.0242 17.5478L12.3594 17.1768L11.8669 16.7317L11.5751 17.328L12.0242 17.5478ZM12.9879 14.3647L13.0603 14.8594L13.7892 14.7528L13.4209 14.1148L12.9879 14.3647ZM12.1037 14.7517L11.6707 15.0017L11.9627 15.5075L12.4175 15.141L12.1037 14.7517ZM12.3148 13.1987L12.7479 12.9487L12.4979 12.5156L12.0648 12.7657L12.3148 13.1987ZM11.6647 13.574L11.218 13.3494L10.467 14.8429L11.9148 14.007L11.6647 13.574ZM11.6648 13.5738L12.1115 13.7985L12.8626 12.3048L11.4148 13.1408L11.6648 13.5738ZM11.4841 13.6782L11.2341 13.2452L10.8011 13.4952L11.0511 13.9282L11.4841 13.6782ZM13.2553 14.9066L13.2554 14.4066H13.2553V14.9066ZM13.2553 17.4608V17.9608H13.2553L13.2553 17.4608ZM10.97 13.1672C10.5129 12.7267 9.06928 11.3142 7.5497 9.60942C6.01921 7.89242 4.45399 5.92514 3.71489 4.36806L2.8115 4.79688C3.61783 6.49559 5.27094 8.55582 6.80322 10.2748C8.34641 12.0061 9.81 13.4381 10.276 13.8872L10.97 13.1672ZM11.134 12.6548L10.373 13.0942L10.873 13.9602L11.6341 13.5208L11.134 12.6548ZM10.884 13.0878V13.0878H11.884V13.0878H10.884ZM12.3096 11.9759L11.134 12.6548L11.6341 13.5207L12.8097 12.8418L12.3096 11.9759ZM8.08266 1.84607C9.06114 3.2644 9.98202 5.60363 10.7036 7.78777C11.42 9.95632 11.9215 11.913 12.0744 12.5293L13.045 12.2884C12.889 11.6601 12.3807 9.6763 11.6531 7.47407C10.9307 5.28742 9.97329 2.82559 8.90578 1.27821L8.08266 1.84607ZM3.69167 4.84019C4.13938 4.09587 4.89213 3.40441 5.77587 2.89413C6.6596 2.38386 7.63475 2.07762 8.50318 2.06206L8.48526 1.06222C7.41148 1.08146 6.27174 1.45309 5.27583 2.02813C4.27992 2.60318 3.38828 3.40448 2.83475 4.32475L3.69167 4.84019ZM3.17155 5.074L3.17157 5.074L3.35485 4.09094L3.35484 4.09094L3.17155 5.074ZM10.0455 14.4436C10.1942 14.5838 10.3872 14.6562 10.5811 14.6562V13.6562C10.6352 13.6562 10.6896 13.6765 10.7314 13.7159L10.0455 14.4436ZM2.23595 4.89015C3.10438 6.80872 5.01732 9.15114 6.70183 11.0103C8.39958 12.884 9.91797 14.3232 10.0452 14.4433L10.7317 13.7162C10.6134 13.6045 9.11593 12.1853 7.44288 10.3388C5.75656 8.47769 3.94376 6.23809 3.14697 4.47778L2.23595 4.89015ZM2.26542 4.18783C2.14473 4.4041 2.13389 4.66473 2.23597 4.89019L3.14695 4.47774C3.17562 4.54107 3.1726 4.6143 3.13865 4.67513L2.26542 4.18783ZM8.57126 0.50003C7.35351 0.50003 6.06993 0.907049 4.95541 1.55807C3.84101 2.20901 2.85754 3.12618 2.26536 4.18793L3.13871 4.67503C3.62624 3.80092 4.46546 3.00236 5.45979 2.42155C6.454 1.84081 7.56518 1.50003 8.57126 1.50003V0.50003ZM8.65125 0.500606C8.62665 0.500244 8.59833 0.499883 8.56869 0.500036L8.57384 1.50002C8.59289 1.49992 8.61281 1.50015 8.63654 1.5005L8.65125 0.500606ZM9.27432 0.826454C9.13041 0.625564 8.89914 0.503806 8.65035 0.500594L8.63744 1.50051C8.56674 1.4996 8.50168 1.46505 8.4614 1.40882L9.27432 0.826454ZM13.642 12.3668C13.6016 12.1963 13.1145 10.1616 12.3409 7.75427C11.5732 5.36573 10.5013 2.53769 9.2742 0.826284L8.46152 1.40899C9.5874 2.97922 10.6204 5.66912 11.3888 8.06024C12.1512 10.4326 12.6315 12.4392 12.6689 12.5973L13.642 12.3668ZM13.2729 13.2229C13.5713 13.0504 13.7217 12.7022 13.6419 12.3664L12.669 12.5977C12.6465 12.503 12.6889 12.4054 12.7725 12.357L13.2729 13.2229ZM13.051 13.351L13.2727 13.223L12.7727 12.3569L12.551 12.4849L13.051 13.351ZM14.0825 14.1379L13.2341 12.668L12.368 13.1679L13.2164 14.6378L14.0825 14.1379ZM15.5934 16.1837C15.5934 15.0652 14.8056 14.1295 13.7565 13.8994L13.5423 14.8762C14.1429 15.0079 14.5934 15.5454 14.5934 16.1837H15.5934ZM15.2482 17.4057C15.467 17.0498 15.5934 16.6306 15.5934 16.1837L14.5934 16.1837C14.5934 16.44 14.5213 16.6786 14.3963 16.8819L15.2482 17.4057ZM15.3223 24.4014L15.3223 17.1438L14.3223 17.1438L14.3223 24.4014L15.3223 24.4014ZM15.6249 25.3198C15.6249 24.8654 15.4757 24.4441 15.2244 24.1041L14.4203 24.6986C14.5491 24.8729 14.6249 25.0872 14.6249 25.3198H15.6249ZM15.5425 25.8955C15.5962 25.7123 15.6249 25.519 15.6249 25.3198H14.6249C14.6249 25.4226 14.6101 25.5212 14.5829 25.6141L15.5425 25.8955ZM14.5627 25.7564C14.5702 28.0178 15.1815 29.6588 16.6066 30.5237L17.1254 29.6688C16.1384 29.0698 15.5697 27.87 15.5627 25.7531L14.5627 25.7564ZM16.6066 30.5237C17.7686 31.2289 19.2 31.2198 20.1135 31.2215L20.1154 30.2215C19.1505 30.2197 18.0102 30.2058 17.1254 29.6688L16.6066 30.5237ZM20.1145 31.2215H20.1152V30.2215H20.1145V31.2215ZM20.1143 31.2215C20.4803 31.2222 20.7401 31.2235 20.941 31.2485C21.1424 31.2735 21.199 31.3141 21.2129 31.3268L21.8872 30.5883C21.6449 30.3671 21.339 30.2903 21.0645 30.2561C20.7894 30.2219 20.4598 30.2221 20.116 30.2215L20.1143 31.2215ZM21.213 31.3269C21.3619 31.4628 21.4251 31.5654 21.4486 31.6287C21.4672 31.6786 21.4641 31.7079 21.4502 31.7418L22.3754 32.1213C22.6201 31.5249 22.3211 30.9843 21.8871 30.5883L21.213 31.3269ZM21.4502 31.742C21.4377 31.7723 21.3573 31.9821 20.5557 32.1728C19.7624 32.3615 18.3898 32.5002 16.0204 32.5001L16.0204 33.5001C18.4084 33.5002 19.8764 33.3623 20.7871 33.1456C21.6896 32.9309 22.1767 32.6063 22.3755 32.1212L21.4502 31.742ZM16.0204 32.5001C15.0767 32.5001 13.9796 32.4782 12.7019 32.4295L12.6638 33.4288C13.9516 33.4779 15.0616 33.5001 16.0204 33.5001V32.5001ZM12.702 32.4295C12.5012 32.4218 12.3358 32.4155 12.2741 32.4155V33.4155C12.3108 33.4155 12.4472 33.4205 12.6637 33.4288L12.702 32.4295ZM12.2841 32.4156L12.2726 32.4154L12.2524 33.4152L12.264 33.4154L12.2841 32.4156ZM12.2845 32.4158C12.2992 32.4164 12.1844 32.4125 12.0369 32.359C11.891 32.306 11.7383 32.2142 11.631 32.0536L10.7995 32.6091C11.3123 33.3765 12.1962 33.4128 12.2406 33.4148L12.2845 32.4158ZM11.631 32.0535C11.4515 31.7849 11.3938 31.3122 11.6846 30.5185L10.7456 30.1745C10.4131 31.082 10.3556 31.9448 10.7995 32.6092L11.631 32.0535ZM11.6847 30.5181L11.7069 30.4576L10.7676 30.1143L10.7455 30.1748L11.6847 30.5181ZM11.7081 30.4541L11.7081 30.454L10.7664 30.1177L10.7664 30.1177L11.7081 30.4541ZM11.7068 30.4578C12.0927 29.4045 12.3223 28.7821 12.4465 28.1431C12.5718 27.4981 12.5878 26.8497 12.5882 25.7434L11.5882 25.743C11.5878 26.8592 11.5692 27.4151 11.4648 27.9523C11.3593 28.4954 11.1638 29.0331 10.7678 30.1138L11.7068 30.4578ZM11.5293 25.3198C11.5293 25.5134 11.5564 25.7015 11.6073 25.8801L12.5691 25.6063C12.5433 25.5157 12.5293 25.4197 12.5293 25.3198H11.5293ZM11.748 24.3993C11.6081 24.6765 11.5293 24.9897 11.5293 25.3198H12.5293C12.5293 25.1502 12.5696 24.9909 12.6408 24.8499L11.748 24.3993ZM11.7554 24.8639L11.7564 24.8658L12.6324 24.3833L12.6313 24.3815L11.7554 24.8639ZM11.7505 24.855L11.756 24.865L12.6307 24.3804L12.6252 24.3703L11.7505 24.855ZM10.5033 20.8936C10.6462 22.2505 11.0882 23.654 11.75 24.8541L12.6257 24.3712C12.028 23.2874 11.6267 22.0124 11.4978 20.7889L10.5033 20.8936ZM11.2069 16.8219C10.5721 17.9552 10.3423 19.3646 10.5033 20.8936L11.4978 20.7889C11.3532 19.4155 11.5677 18.224 12.0793 17.3106L11.2069 16.8219ZM10.9171 16.1837C10.9171 16.5898 11.0214 16.9732 11.2049 17.307L12.0813 16.8255C11.9767 16.6351 11.9171 16.4168 11.9171 16.1837H10.9171ZM11.2887 14.9197C11.0537 15.2844 10.9171 15.719 10.9171 16.1837H11.9171C11.9171 15.9173 11.995 15.6698 12.1293 15.4613L11.2887 14.9197ZM10.5649 14.2089L11.276 15.4405L12.142 14.9405L11.431 13.7089L10.5649 14.2089ZM10.9715 14.5516L11.248 14.3919L10.7479 13.5259L10.4714 13.6856L10.9715 14.5516ZM10.5812 14.6562C10.7161 14.6562 10.8504 14.6211 10.9703 14.5522L10.4725 13.685C10.5049 13.6664 10.5424 13.6562 10.5812 13.6562V14.6562ZM10.3575 14.6034L10.3576 14.6035L10.8048 13.709L10.8048 13.709L10.3575 14.6034ZM12.1434 26.5443C12.1289 27.3316 12.0838 27.7998 11.9662 28.294C11.8451 28.8029 11.6452 29.351 11.2948 30.3071L12.2338 30.6512C12.5765 29.7158 12.8013 29.1047 12.9391 28.5254C13.0803 27.9316 13.1282 27.3827 13.1433 26.5627L12.1434 26.5443ZM11.2948 30.3071L11.2727 30.3675L12.2116 30.7116L12.2338 30.6512L11.2948 30.3071ZM11.2727 30.3675C11.1399 30.7301 11.0579 31.0768 11.045 31.3936C11.0321 31.7092 11.087 32.0291 11.2662 32.2972L12.0977 31.7416C12.0732 31.705 12.0367 31.6167 12.0441 31.4343C12.0515 31.2532 12.1015 31.0124 12.2117 30.7115L11.2727 30.3675ZM11.2663 32.2973C11.4408 32.5584 11.6822 32.6938 11.8634 32.7634C12.0447 32.8329 12.197 32.8489 12.2432 32.8526L12.322 31.8557C12.3312 31.8564 12.282 31.8529 12.2216 31.8297C12.1611 31.8065 12.1207 31.7761 12.0976 31.7415L11.2663 32.2973ZM12.2798 32.8541C12.3324 32.8544 12.4545 32.859 12.6754 32.8675L12.7136 31.8682C12.5049 31.8602 12.3591 31.8546 12.2854 31.8542L12.2798 32.8541ZM12.6754 32.8675L12.6852 32.8678L12.7234 31.8686L12.7136 31.8682L12.6754 32.8675ZM12.6847 32.8678L12.6871 32.8679L12.7262 31.8687L12.7238 31.8686L12.6847 32.8678ZM12.6876 32.8679C13.589 32.9023 15.7151 32.9835 17.6801 32.912L17.6438 31.9127C15.7208 31.9826 13.6296 31.9031 12.7257 31.8687L12.6876 32.8679ZM17.6801 32.912C19.3613 32.8509 20.3311 32.6991 20.8998 32.5363C21.4361 32.3828 21.7434 32.1837 21.8562 31.9082L20.9308 31.5292C21.0049 31.3483 21.1117 31.4355 20.6246 31.5749C20.1699 31.7051 19.2932 31.8528 17.6438 31.9127L17.6801 32.912ZM21.8561 31.9083C21.9229 31.7454 21.8954 31.5971 21.8724 31.5181C21.8474 31.4327 21.8081 31.3607 21.7737 31.307C21.7039 31.198 21.6088 31.0943 21.5088 31.003L20.8344 31.7414C20.8953 31.7969 20.9242 31.8347 20.9316 31.8463C20.9358 31.8529 20.9234 31.8359 20.9125 31.7986C20.9035 31.7676 20.8771 31.6601 20.9308 31.5291L21.8561 31.9083ZM21.5007 30.9957C21.4134 30.9194 21.3189 30.8843 21.2707 30.8684C21.2132 30.8495 21.1555 30.8372 21.1058 30.8287C21.006 30.8115 20.893 30.8019 20.7852 30.7958C20.5679 30.7836 20.3144 30.7833 20.1158 30.7829L20.114 31.7829C20.3194 31.7833 20.5442 31.7839 20.7292 31.7942C20.8225 31.7995 20.8918 31.8065 20.9364 31.8142C20.9589 31.8181 20.9639 31.8203 20.9574 31.8181C20.9537 31.8169 20.9415 31.8127 20.9244 31.8041C20.9083 31.7961 20.8774 31.7791 20.8426 31.7487L21.5007 30.9957ZM20.1149 30.7829H20.1141V31.7829H20.1149V30.7829ZM20.1141 30.7829H20.113V31.7829H20.1141V30.7829ZM20.114 30.7829C19.089 30.7809 17.8544 30.7678 16.8342 30.1487L16.3154 31.0036C17.6092 31.7887 19.1267 31.781 20.112 31.7829L20.114 30.7829ZM16.8342 30.1487C15.8088 29.5264 15.1689 28.3519 15.0296 26.5004L14.0325 26.5755C14.1861 28.617 14.9175 30.1553 16.3154 31.0036L16.8342 30.1487ZM13.577 27.3676C14.0528 27.3677 14.492 27.2042 14.8398 26.9313L14.2223 26.1446C14.044 26.2846 13.8205 26.3676 13.5772 26.3676L13.577 27.3676ZM12.3412 26.9518C12.6845 27.2123 13.1135 27.3676 13.5771 27.3676V26.3676C13.3398 26.3676 13.1216 26.2887 12.9456 26.1552L12.3412 26.9518ZM13.9236 24.9763C13.9388 24.996 13.955 25.015 13.972 25.0331L14.7015 24.3492C14.7063 24.3543 14.7108 24.3596 14.715 24.3651L13.9236 24.9763ZM13.577 24.8332C13.722 24.8332 13.8527 24.8968 13.9431 25L14.6955 24.3414C14.424 24.0312 14.0234 23.8333 13.5772 23.8332L13.577 24.8332ZM13.0907 25.3198C13.0907 25.0519 13.3095 24.8332 13.5771 24.8332V23.8332C12.7569 23.8332 12.0907 24.4998 12.0907 25.3198H13.0907ZM13.5771 25.8064C13.3094 25.8064 13.0907 25.5877 13.0907 25.3198H12.0907C12.0907 26.1398 12.7569 26.8064 13.5771 26.8064V25.8064ZM14.0635 25.3198C14.0635 25.5878 13.8448 25.8064 13.5771 25.8064V26.8064C14.3972 26.8064 15.0635 26.1399 15.0635 25.3198H14.0635ZM13.9518 25.0102C14.022 25.0949 14.0635 25.2022 14.0635 25.3198L15.0635 25.3199C15.0635 24.96 14.9346 24.629 14.7217 24.3721L13.9518 25.0102ZM14.7609 23.9313V17.7219H13.7609V23.9313H14.7609ZM13.5771 24.2719C13.7437 24.2719 13.9002 24.3107 14.0393 24.3795L14.4826 23.4831C14.209 23.3478 13.9012 23.2719 13.5771 23.2719L13.5771 24.2719ZM12.8979 24.5228C13.0815 24.3659 13.3182 24.2719 13.5771 24.2719V23.2719C13.0704 23.2719 12.6056 23.4572 12.2483 23.7625L12.8979 24.5228ZM11.5751 17.328C11.0386 18.4241 10.9319 19.7046 11.0744 20.9321C11.2173 22.1627 11.6144 23.3775 12.129 24.3723L13.0172 23.9129C12.5545 23.0184 12.1958 21.9195 12.0677 20.8168C11.9394 19.7111 12.0469 18.6388 12.4733 17.7676L11.5751 17.328ZM13.2553 17.5221C12.9112 17.5221 12.5975 17.3919 12.3594 17.1768L11.6889 17.9187C12.1031 18.293 12.6532 18.5221 13.2553 18.5221V17.5221ZM13.9866 17.3039C13.7762 17.4419 13.5255 17.5221 13.2553 17.5221V18.5221C13.7269 18.5221 14.1674 18.3814 14.5353 18.1399L13.9866 17.3039ZM12.9155 13.87C12.4928 13.9318 12.107 14.1069 11.79 14.3624L12.4175 15.141C12.5997 14.9942 12.82 14.8946 13.0603 14.8594L12.9155 13.87ZM11.8818 13.4486L12.5548 14.6147L13.4209 14.1148L12.7479 12.9487L11.8818 13.4486ZM11.9148 14.007L12.5648 13.6317L12.0648 12.7657L11.4147 13.141L11.9148 14.007ZM11.2181 13.3492L11.218 13.3494L12.1115 13.7986L12.1115 13.7985L11.2181 13.3492ZM11.7341 14.1112L11.9149 14.0068L11.4148 13.1408L11.2341 13.2452L11.7341 14.1112ZM12.5368 14.5017L11.9171 13.4282L11.0511 13.9282L11.6707 15.0017L12.5368 14.5017ZM13.2553 14.4066C12.275 14.4066 11.4784 15.2035 11.4784 16.1837H12.4784C12.4784 15.7556 12.8274 15.4066 13.2553 15.4066V14.4066ZM15.0321 16.1837C15.0321 15.2033 14.2355 14.4068 13.2554 14.4066L13.2552 15.4066C13.6831 15.4067 14.0321 15.7556 14.0321 16.1837H15.0321ZM13.2553 17.9608C14.2355 17.9607 15.0321 17.164 15.0321 16.1837H14.0321C14.0321 16.6118 13.6831 16.9608 13.2553 16.9608L13.2553 17.9608ZM11.4784 16.1837C11.4784 17.164 12.275 17.9608 13.2553 17.9608V16.9608C12.8274 16.9608 12.4784 16.6118 12.4784 16.1837H11.4784Z" fill="#0F2D5B"/>
</g>
</g>
</svg>
