<svg width="25" height="32" viewBox="0 0 25 32" fill="none" xmlns="http://www.w3.org/2000/svg">
<g id="Pharmacy">
<path id="Union" fill-rule="evenodd" clip-rule="evenodd" d="M14.0803 3.73646H15.6112V1.86123C13.7195 1.15509 11.613 1.15574 9.72207 1.86123V3.73646H11.253C11.2772 3.73624 11.3014 3.73613 11.3256 3.73613H14.0077C14.0319 3.73613 14.0561 3.73624 14.0803 3.73646ZM8.38872 4.29505V1.41098C8.38872 1.145 8.54692 0.904407 8.79107 0.798926C11.2589 -0.266309 14.0737 -0.266309 16.5422 0.798926C16.7863 0.904407 16.9445 1.145 16.9445 1.41098V4.29509C19.9026 5.46806 22 8.35834 22 11.7293V31.3333C22 31.7015 21.7014 32 21.3333 32H3.9997C3.63153 32 3.33302 31.7015 3.33302 31.3333V11.7293C3.33302 8.3583 5.43038 5.46799 8.38872 4.29505ZM11.2593 5.06995C7.61781 5.10568 4.66637 8.07943 4.66637 11.7293V30.6665H20.6666V11.7293C20.6666 8.07943 17.7152 5.10568 14.074 5.06995H11.2593ZM9.41131 24.3269C8.74659 24.3269 8.12288 24.0603 7.6551 23.5759C6.70457 22.591 6.70457 20.989 7.6551 20.0045L10.7033 16.8473C10.7133 16.8362 10.7238 16.8253 10.7347 16.8148L13.7834 13.657C14.7184 12.6881 16.3606 12.6878 17.2962 13.6573C18.2464 14.6415 18.2464 16.2436 17.2959 17.2281L11.1675 23.5759C10.6997 24.0603 10.076 24.3269 9.41131 24.3269ZM11.1989 18.2538L8.6141 20.931C8.15674 21.4047 8.15674 22.1756 8.61443 22.6496C9.04217 23.0931 9.78013 23.0934 10.2085 22.6493L12.8255 19.9386L11.1989 18.2538ZM13.7523 18.9787L12.1257 17.2938L14.7428 14.5832C14.957 14.3615 15.2398 14.2391 15.5397 14.2391C15.8395 14.2391 16.1223 14.3615 16.3369 14.5836C16.7942 15.0572 16.7942 15.8278 16.3369 16.3015L13.7523 18.9787Z" fill="#0F2D5B"/>
</g>
</svg>
